:version 1.10
:name ASF
:units
  mass 1
  length 1
  angle deg
:documentation
  ASF file generated by Kaydara
:root
  axis xyz
  order  tx ty tz rx ry rz
  position 0 0 0
  orientation 0 0 0
:bonedata
  begin
    id 1
    name RightUpLegDummy
    direction -1 2.30186e-007 8.31532e-007
    length 4.04083
    axis 0 0 0 xyz
  end
  begin
    id 2
    name RightUpLeg
    direction -0.000919234 -0.999985 0.00544864
    length 17.4221
    axis -3.80308 -0.00076134 -0.0523649 xyz
    dof rx ry rz
  end
  begin
    id 3
    name RightLeg
    direction -0.000919271 -0.999984 -0.00555045
    length 17.1239
    axis 4.00314 0.0181274 -0.183583 xyz
    dof rx ry rz
  end
  begin
    id 4
    name RightFoot
    direction -2.57843e-005 -4.04509e-007 1
    length 6.72091
    axis 8.18909e-005 -0.122003 -0.403008 xyz
    dof rx ry rz
  end
  begin
    id 5
    name RightToes
    direction 0.00116825 -0.014069 0.9999
    length 3.85082
    axis 0.000514414 0.540638 -0.356797 xyz
    dof rx ry rz
  end
  begin
    id 6
    name SpineDummy
    direction 0.0168869 0.966876 -0.254689
    length 6.99894
    axis 0 0 0 xyz
  end
  begin
    id 7
    name Spine
    direction -0.0132008 0.999903 0.00446247
    length 11.1999
    axis -0.00148109 0.00725429 0.756411 xyz
    dof rx ry rz
  end
  begin
    id 8
    name Spine1
    direction 0 0 0
    length 0
    axis -0.000934958 0.0245693 1.46543 xyz
    dof rx ry rz
  end
  begin
    id 9
    name HEadDummy
    direction -0.0255732 0.999672 0.00128215
    length 3.43865
    axis -0.000934958 0.0245693 1.46543 xyz
  end
  begin
    id 10
    name HEad
    direction -0.0472656 0.980052 0.19304
    length 5.12695
    axis -0.000934954 0.0245693 1.46543 xyz
    dof rx ry rz
  end
  begin
    id 11
    name LeftShoulder1Dummy
    direction 0.953098 0.301717 -0.023914
    length 3.68488
    axis -0.000934958 0.0245693 1.46543 xyz
  end
  begin
    id 12
    name LeftShoulder1
    direction 0.962466 0.271167 0.0112566
    length 3.13809
    axis -0.000934958 0.0245693 1.46543 xyz
    dof rx ry rz
  end
  begin
    id 13
    name LeftArm
    direction 0.999943 0.00455037 -0.00961766
    length 11.3419
    axis -23.1648 0.685459 1.22814 xyz
    dof rx ry rz
  end
  begin
    id 14
    name LeftForeArm
    direction 0.999332 0.0131969 0.0340885
    length 8.70632
    axis -9.90633 0.618216 0.0826942 xyz
    dof rx ry rz
  end
  begin
    id 15
    name LeftHand
    direction 0.994373 -0.0366703 0.0993905
    length 5.32135
    axis 0.00675269 0.680415 0.445699 xyz
    dof rx ry rz
  end
  begin
    id 16
    name RightShoulderDummy
    direction -0.967298 0.252589 -0.0230903
    length 3.68488
    axis -0.000934958 0.0245693 1.46543 xyz
  end
  begin
    id 17
    name RightShoulder
    direction -0.975062 0.221602 0.0120823
    length 3.13809
    axis 0.216257 0.0246515 1.45863 xyz
    dof rx ry rz
  end
  begin
    id 18
    name RightArm
    direction -0.99886 -0.00851186 -0.0469687
    length 10.3947
    axis -23.196 0.23503 -0.532632 xyz
    dof rx ry rz
  end
  begin
    id 19
    name RightForeArm
    direction -0.99909 0.00114866 0.0426317
    length 8.68355
    axis -9.91764 -0.134943 0.610517 xyz
    dof rx ry rz
  end
  begin
    id 20
    name RightHand
    direction -0.992888 -0.0489538 0.10852
    length 5.28593
    axis -0.00275396 -0.197403 0.246414 xyz
    dof rx ry rz
  end
  begin
    id 21
    name LeftUpLegDummy
    direction 1 -2.30186e-007 -8.31532e-007
    length 4.04083
    axis 0 0 0 xyz
  end
  begin
    id 22
    name LeftUpLeg
    direction -0.000920097 -1 2.79241e-006
    length 17.4221
    axis -3.48782 0.00143434 -0.0532288 xyz
    dof rx ry rz
  end
  begin
    id 23
    name LeftLeg
    direction -0.000920097 -1 2.7912e-006
    length 17.1239
    axis 3.68162 -0.00806512 -0.0529896 xyz
    dof rx ry rz
  end
  begin
    id 24
    name LeftFoot
    direction -2.57845e-005 -3.987e-007 1
    length 6.72091
    axis 3.02372e-005 -0.00147829 -0.214229 xyz
    dof rx ry rz
  end
  begin
    id 25
    name LeftToes
    direction 0.00813577 -0.00488255 0.999955
    length 3.85048
    axis 3.89895e-005 -0.0014783 -0.214229 xyz
    dof rx ry rz
  end
:hierarchy
  begin
    root RightUpLegDummy SpineDummy LeftUpLegDummy
    RightUpLegDummy RightUpLeg
    RightUpLeg RightLeg
    RightLeg RightFoot
    RightFoot RightToes
    SpineDummy Spine
    Spine Spine1
    Spine1 HEadDummy LeftShoulder1Dummy RightShoulderDummy
    HEadDummy HEad
    LeftShoulder1Dummy LeftShoulder1
    LeftShoulder1 LeftArm
    LeftArm LeftForeArm
    LeftForeArm LeftHand
    RightShoulderDummy RightShoulder
    RightShoulder RightArm
    RightArm RightForeArm
    RightForeArm RightHand
    LeftUpLegDummy LeftUpLeg
    LeftUpLeg LeftLeg
    LeftLeg LeftFoot
    LeftFoot LeftToes
  end

:SAMPLES-PER-SECOND 30
:FULLY-SPECIFIED
:DEGREES
108
root  -54.3074 35.0382 30.6808 -170.844 45.4781 -179.581
RightUpLeg  -4.58151 -20.5503 -0.79257
RightLeg  3.29283 -4.87454 0.034583
RightFoot  4.62396 0.0388024 -0.26768
RightToes  -21.9089 -0.0934098 -0.193048
Spine  -2.57962 2.54797 -5.13559
Spine1  -4.74017 4.37402 -9.30719
HEad  -71.9704 -24.0752 10.9508
LeftShoulder1  -1.94126e-019 -3.10601e-018 -2.51263e-017
LeftArm  -6.92763 23.5017 -72.8092
LeftForeArm  29.5211 -23.6454 -3.77619
LeftHand  -0.29637 -0.54065 5.89877
RightShoulder  -4.96962e-017 0 -2.36833e-017
RightArm  10.9612 31.1089 27.9641
RightForeArm  62.1679 77.6539 51.0892
RightHand  2.34722 5.7115 23.807
LeftUpLeg  -6.58476 -4.92655 2.23265
LeftLeg  1.22726 14.2973 -0.606676
LeftFoot  8.04555 -0.141387 2.1718
LeftToes  -19.1524 1.48321e-006 1.01846e-007
109
root  -54.413 35.036 30.6604 -170.398 45.1174 -179.694
RightUpLeg  -5.31738 -20.762 -0.759945
RightLeg  3.5347 -5.04627 0.0145528
RightFoot  4.63971 0.0397387 -0.280009
RightToes  -22.0437 -0.0934467 -0.193048
Spine  -2.76058 2.37912 -5.16034
Spine1  -5.11194 4.04428 -9.37111
HEad  -70.4474 -23.354 10.2745
LeftShoulder1  -1.94126e-019 -3.10601e-018 -2.51263e-017
LeftArm  -5.73921 24.3144 -72.3735
LeftForeArm  29.945 -23.4396 -3.75282
LeftHand  -0.330726 -0.633 6.48197
RightShoulder  -4.96962e-017 0 -2.36833e-017
RightArm  0.910841 33.0005 23.2419
RightForeArm  55.832 76.6631 46.4136
RightHand  1.90692 4.42318 21.9634
LeftUpLeg  -6.89066 -4.73112 2.08197
LeftLeg  0.434161 13.7474 -0.772617
LeftFoot  8.52765 -0.1527 2.20948
LeftToes  -19.1478 1.48321e-006 1.01846e-007
110
root  -54.4972 35.0284 30.6363 -170.111 45.1362 -179.702
RightUpLeg  -5.70016 -20.8168 -0.755808
RightLeg  3.51951 -4.97669 0.0156727
RightFoot  4.7446 0.0394942 -0.275458
RightToes  -22.1777 -0.0934823 -0.194097
Spine  -2.81103 2.3811 -5.29813
Spine1  -5.30106 4.11871 -9.69249
HEad  -69.1116 -22.7354 10.1539
LeftShoulder1  -1.94126e-019 -3.10601e-018 -2.51263e-017
LeftArm  -5.75269 24.29 -71.6275
LeftForeArm  31.1017 -22.3804 -3.69399
LeftHand  -0.33596 -0.829608 6.39206
RightShoulder  -4.96962e-017 0 -2.36833e-017
RightArm  -12.4456 35.2017 18.8951
RightForeArm  47.4082 73.3675 34.3747
RightHand  1.43556 3.871 17.5738
LeftUpLeg  -7.18902 -4.38998 1.97476
LeftLeg  0.309082 13.4183 -0.783568
LeftFoot  8.60878 -0.152169 2.18306
LeftToes  -19.1867 1.48321e-006 1.01846e-007
111
root  -54.579 35.0189 30.6121 -169.94 45.3035 -179.757
RightUpLeg  -6.01146 -20.9379 -0.819813
RightLeg  3.50324 -4.70574 0.0161717
RightFoot  4.84637 0.0380221 -0.253357
RightToes  -22.4758 -0.0935175 -0.194697
Spine  -2.80502 2.62925 -5.20102
Spine1  -5.4209 4.70748 -9.56241
HEad  -68.3873 -22.6532 9.38106
LeftShoulder1  -1.94126e-019 -3.10601e-018 -2.51263e-017
LeftArm  -7.23239 23.4621 -71.8608
LeftForeArm  32.7695 -19.0926 -3.25355
LeftHand  -0.330184 -0.899799 6.21967
RightShoulder  -4.96962e-017 0 -2.36833e-017
RightArm  -27.3765 38.2633 15.2801
RightForeArm  42.3562 67.4804 23.1915
RightHand  0.72626 2.28016 10.7843
LeftUpLeg  -7.57751 -4.29079 1.84202
LeftLeg  0.603834 13.4019 -0.714144
LeftFoot  8.47861 -0.150474 2.15506
LeftToes  -19.2273 1.48321e-006 1.01846e-007
112
root  -54.6547 35.0202 30.5966 -169.826 45.3986 -179.822
RightUpLeg  -6.17484 -21.1293 -0.886122
RightLeg  3.2933 -4.42801 0.0314167
RightFoot  5.03498 0.0370215 -0.237992
RightToes  -22.5401 -0.0935524 -0.195245
Spine  -2.74144 2.83673 -5.26435
Spine1  -5.40172 5.19958 -9.73533
HEad  -68.7694 -22.5585 9.25618
LeftShoulder1  -1.94126e-019 -3.10601e-018 -2.51263e-017
LeftArm  -10.2087 22.3945 -71.83
LeftForeArm  35.4619 -16.1394 -2.85163
LeftHand  -0.345144 -0.760846 6.63158
RightShoulder  -4.96962e-017 0 -2.36833e-017
RightArm  -43.3959 42.0001 13.7734
RightForeArm  41.4936 60.1563 15.88
RightHand  -0.00956307 -0.207858 -0.190243
LeftUpLeg  -7.81301 -4.37286 1.72517
LeftLeg  0.639095 13.5292 -0.712537
LeftFoot  8.52671 -0.152676 2.1921
LeftToes  -19.1747 1.48321e-006 1.01846e-007
113
root  -54.7147 35.0291 30.5868 -169.649 45.4967 -179.741
RightUpLeg  -6.23959 -21.1025 -0.845366
RightLeg  2.99817 -4.3558 0.0532773
RightFoot  5.35877 0.0380324 -0.251372
RightToes  -22.7793 -0.0935876 -0.195743
Spine  -2.6674 2.95882 -5.41922
Spine1  -5.33529 5.49993 -10.0728
HEad  -69.418 -22.2137 9.55301
LeftShoulder1  -1.94126e-019 -3.10601e-018 -2.51263e-017
LeftArm  -12.02 21.6426 -71.2189
LeftForeArm  36.4902 -14.4523 -2.5796
LeftHand  -0.378911 -0.355194 7.74817
RightShoulder  -4.96962e-017 0 -2.36833e-017
RightArm  -58.265 45.8686 13.2197
RightForeArm  41.2644 53.9197 12.0862
RightHand  -0.10469 -4.5881 -13.0625
LeftUpLeg  -7.90548 -4.32138 1.70692
LeftLeg  0.496249 13.4971 -0.744288
LeftFoot  8.635 -0.153832 2.2177
LeftToes  -19.0549 1.48321e-006 1.01846e-007
114
root  -54.7596 35.0341 30.5825 -169.462 45.6735 -179.701
RightUpLeg  -6.44292 -21.0884 -0.804632
RightLeg  2.90041 -4.18919 0.0583819
RightFoot  5.52751 0.0378355 -0.247485
RightToes  -22.8355 -0.0936234 -0.196194
Spine  -2.6468 3.08645 -5.36479
Spine1  -5.33036 5.77886 -9.97907
HEad  -70.3248 -21.9026 9.1601
LeftShoulder1  -1.94126e-019 -3.10601e-018 -2.51263e-017
LeftArm  -13.3864 21.3114 -71.0521
LeftForeArm  36.2273 -12.7159 -2.25584
LeftHand  -0.380845 -0.0289561 8.22607
RightShoulder  -4.96962e-017 0 -2.36833e-017
RightArm  -67.7696 49.4788 13.1633
RightForeArm  38.1749 50.47 10.7143
RightHand  1.04379 -9.72124 -27.5739
LeftUpLeg  -8.08906 -4.23539 1.66551
LeftLeg  0.49958 13.6034 -0.749253
LeftFoot  8.65413 -0.15447 2.24041
LeftToes  -18.9265 1.48321e-006 1.01846e-007
115
root  -54.7815 35.0357 30.5693 -169.326 45.9747 -179.647
RightUpLeg  -6.56821 -21.0024 -0.780376
RightLeg  2.81754 -3.98749 0.0613415
RightFoot  5.64337 0.037246 -0.237979
RightToes  -22.8671 -0.0936602 -0.196601
Spine  -2.62833 3.22001 -5.38983
Spine1  -5.30816 6.04622 -10.0395
HEad  -71.4406 -21.78 9.17796
LeftShoulder1  -1.94126e-019 -3.10601e-018 -2.51263e-017
LeftArm  -13.7531 21.292 -70.5048
LeftForeArm  35.8478 -12.3102 -2.18057
LeftHand  -0.401996 -0.498576 8.02877
RightShoulder  -4.96962e-017 0 -2.36833e-017
RightArm  -68.1822 50.6684 13.1451
RightForeArm  34.1649 49.9075 10.7764
RightHand  2.54135 -12.6327 -38.7622
LeftUpLeg  -8.14375 -3.96797 1.62322
LeftLeg  0.47663 13.6518 -0.757299
LeftFoot  8.61752 -0.153194 2.23894
LeftToes  -18.831 1.48321e-006 1.01846e-007
